<?xml version="1.0" encoding="UTF-8" standalone="no"?>
<svg
   version="1.1"
   width="62.822205mm"
   height="97.662697mm"
   viewBox="0 0 20.940735 32.554232"
   id="svg2168"
   sodipodi:docname="current_sink.svg"
   inkscape:version="1.2.2 (b0a8486541, 2022-12-01)"
   xmlns:inkscape="http://www.inkscape.org/namespaces/inkscape"
   xmlns:sodipodi="http://sodipodi.sourceforge.net/DTD/sodipodi-0.dtd"
   xmlns="http://www.w3.org/2000/svg"
   xmlns:svg="http://www.w3.org/2000/svg"
   xmlns:rdf="http://www.w3.org/1999/02/22-rdf-syntax-ns#"
   xmlns:cc="http://creativecommons.org/ns#"
   xmlns:dc="http://purl.org/dc/elements/1.1/">
  <defs
     id="defs2172" />
  <sodipodi:namedview
     id="namedview2170"
     pagecolor="#ffffff"
     bordercolor="#666666"
     borderopacity="1.0"
     inkscape:showpageshadow="2"
     inkscape:pageopacity="0.0"
     inkscape:pagecheckerboard="0"
     inkscape:deskcolor="#d1d1d1"
     inkscape:document-units="mm"
     showgrid="false"
     inkscape:zoom="1.5518918"
     inkscape:cx="142.72902"
     inkscape:cy="178.16964"
     inkscape:window-width="1920"
     inkscape:window-height="1056"
     inkscape:window-x="0"
     inkscape:window-y="0"
     inkscape:window-maximized="1"
     inkscape:current-layer="g1706" />
  <title
     id="title2">SVG Image created as Schematic.svg date 2024/11/17 11:26:14 </title>
  <desc
     id="desc4">Image generated by Eeschema-SVG </desc>
  <g
     style="fill:#000000;fill-opacity:1;stroke:#000000;stroke-linecap:round;stroke-linejoin:round;stroke-opacity:1"
     id="g6"
     transform="translate(-58.3438,-59.6138)" />
  <g
     style="fill:none;stroke:#840000;stroke-width:0.3;stroke-linecap:round;stroke-linejoin:round;stroke-opacity:1"
     id="g1662"
     transform="translate(-58.3438,-59.6138)">
    <text
       x="178.0022"
       y="180.7572"
       textLength="0.89999998"
       font-size="2px"
       lengthAdjust="spacingAndGlyphs"
       text-anchor="start"
       opacity="0"
       stroke-opacity="0"
       id="text1656" />
    <g
       class="stroked-text"
       id="g1660">
      <desc
         id="desc1658" />
    </g>
  </g>
  <g
     style="fill:none;stroke:#840000;stroke-width:0.1524;stroke-linecap:round;stroke-linejoin:round;stroke-opacity:1"
     id="g1706"
     transform="translate(-58.3438,-59.6138)">
    <text
       x="178.0022"
       y="177.7572"
       textLength="0.45719999"
       font-size="2px"
       lengthAdjust="spacingAndGlyphs"
       text-anchor="start"
       opacity="0"
       stroke-opacity="0"
       id="text1664" />
    <g
       class="stroked-text"
       id="g1668">
      <desc
         id="desc1666" />
    </g>
    <text
       x="178.0022"
       y="174.7572"
       textLength="0.45719999"
       font-size="2px"
       lengthAdjust="spacingAndGlyphs"
       text-anchor="start"
       opacity="0"
       stroke-opacity="0"
       id="text1670" />
    <g
       class="stroked-text"
       id="g1674">
      <desc
         id="desc1672" />
    </g>
    <text
       x="178.0022"
       y="171.7572"
       textLength="0.45719999"
       font-size="2px"
       lengthAdjust="spacingAndGlyphs"
       text-anchor="start"
       opacity="0"
       stroke-opacity="0"
       id="text1676" />
    <g
       class="stroked-text"
       id="g1680">
      <desc
         id="desc1678" />
    </g>
    <text
       x="178.0022"
       y="168.7572"
       textLength="0.45719999"
       font-size="2px"
       lengthAdjust="spacingAndGlyphs"
       text-anchor="start"
       opacity="0"
       stroke-opacity="0"
       id="text1682" />
    <g
       class="stroked-text"
       id="g1686">
      <desc
         id="desc1684" />
    </g>
    <path
       style="fill:none;stroke:#840000;stroke-width:0.1524;stroke-linecap:round;stroke-linejoin:round;stroke-opacity:1"
       d="m 67.31,71.12 h 3.175"
       id="path1692" />
    <path
       style="fill:none;stroke:#840000;stroke-width:0.1524;stroke-linecap:round;stroke-linejoin:round;stroke-opacity:1"
       d="M 70.485,70.485 72.39,68.58"
       id="path1694" />
    <path
       style="fill:none;stroke:#840000;stroke-width:0.1524;stroke-linecap:round;stroke-linejoin:round;stroke-opacity:1"
       d="M 72.644,72.39 Z"
       id="path1696" />
    <path
       style="fill:none;stroke:#840000;stroke-width:0.1524;stroke-linecap:round;stroke-linejoin:round;stroke-opacity:1"
       d="M 72.644,72.39 Z"
       id="path1698" />
    <path
       style="fill:none;stroke:#840000;stroke-width:0.1524;stroke-linecap:round;stroke-linejoin:round;stroke-opacity:1"
       d="m 70.485,71.755 1.905,1.905 v 0"
       id="path1700" />
    <path
       style="fill:none;stroke:#840000;stroke-width:0.508;stroke-linecap:round;stroke-linejoin:round;stroke-opacity:1"
       d="m 70.485,69.215 v 3.81 0"
       id="path1702" />
    <path
       style="fill:#840000;fill-opacity:1;fill-rule:evenodd;stroke:#840000;stroke-width:0.1524;stroke-linecap:round;stroke-linejoin:round;stroke-opacity:1"
       d="m 71.12,72.898 0.508,-0.508 0.508,1.016 z"
       id="path1704" />
  </g>
  <g
     style="fill:none;stroke:#840000;stroke-width:0.254;stroke-linecap:round;stroke-linejoin:round;stroke-opacity:1"
     id="g1710"
     transform="translate(-58.3438,-59.6138)">
    <circle
       cx="71.120003"
       cy="71.120003"
       r="2.8194001"
       id="circle1708" />
  </g>
  <g
     style="fill:none;stroke:#840000;stroke-width:0.1524;stroke-linecap:round;stroke-linejoin:round;stroke-opacity:1"
     id="g1718"
     transform="translate(-58.3438,-59.6138)">
    <path
       d="M 72.39,68.58 V 66.04"
       id="path1712" />
    <path
       d="M 67.31,71.12 H 64.77"
       id="path1714" />
    <path
       d="M 72.39,73.66 V 76.2"
       id="path1716" />
  </g>
  <g
     style="fill:none;stroke:#006464;stroke-width:0.1524;stroke-linecap:round;stroke-linejoin:round;stroke-opacity:1"
     id="g1818"
     transform="translate(-58.3438,-59.6138)">
    <text
       x="76.311203"
       y="70.484901"
       textLength="2.7432001"
       font-size="1.6933px"
       lengthAdjust="spacingAndGlyphs"
       text-anchor="middle"
       opacity="0"
       stroke-opacity="0"
       id="text1720">Q1</text>
    <g
       class="stroked-text"
       id="g1776">
      <desc
         id="desc1722">Q1</desc>
      <path
         d="m 76.1902,70.5504 -0.121,-0.0605"
         id="path1724" />
      <path
         d="M 76.0692,70.4899 75.9483,70.369"
         id="path1726" />
      <path
         d="M 75.9483,70.369 75.7669,70.1875"
         id="path1728" />
      <path
         d="M 75.7669,70.1875 75.6459,70.127"
         id="path1730" />
      <path
         d="M 75.6459,70.127 H 75.525"
         id="path1732" />
      <path
         d="M 75.5854,70.4294 75.4645,70.369"
         id="path1734" />
      <path
         d="m 75.4645,70.369 -0.121,-0.121"
         id="path1736" />
      <path
         d="M 75.3435,70.248 75.2831,70.0061"
         id="path1738" />
      <path
         d="M 75.2831,70.0061 V 69.5828"
         id="path1740" />
      <path
         d="m 75.2831,69.5828 0.0604,-0.2419"
         id="path1742" />
      <path
         d="m 75.3435,69.3409 0.121,-0.121"
         id="path1744" />
      <path
         d="m 75.4645,69.2199 0.1209,-0.0605"
         id="path1746" />
      <path
         d="m 75.5854,69.1594 h 0.2419"
         id="path1748" />
      <path
         d="m 75.8273,69.1594 0.121,0.0605"
         id="path1750" />
      <path
         d="m 75.9483,69.2199 0.1209,0.121"
         id="path1752" />
      <path
         d="m 76.0692,69.3409 0.0605,0.2419"
         id="path1754" />
      <path
         d="m 76.1297,69.5828 v 0.4233"
         id="path1756" />
      <path
         d="M 76.1297,70.0061 76.0692,70.248"
         id="path1758" />
      <path
         d="m 76.0692,70.248 -0.1209,0.121"
         id="path1760" />
      <path
         d="m 75.9483,70.369 -0.121,0.0604"
         id="path1762" />
      <path
         d="M 75.8273,70.4294 H 75.5854"
         id="path1764" />
      <path
         d="M 77.3393,70.4294 H 76.6136"
         id="path1766" />
      <path
         d="m 76.9764,70.4294 v -1.27"
         id="path1768" />
      <path
         d="m 76.9764,69.1594 -0.1209,0.1815"
         id="path1770" />
      <path
         d="m 76.8555,69.3409 -0.121,0.1209"
         id="path1772" />
      <path
         d="m 76.7345,69.4618 -0.1209,0.0605"
         id="path1774" />
    </g>
    <text
       x="77.006699"
       y="73.024902"
       textLength="4.1342001"
       font-size="1.6933px"
       lengthAdjust="spacingAndGlyphs"
       text-anchor="middle"
       opacity="0"
       stroke-opacity="0"
       id="text1778">NPN</text>
    <g
       class="stroked-text"
       id="g1814">
      <desc
         id="desc1780">NPN</desc>
      <path
         d="m 75.3435,72.9694 v -1.27"
         id="path1782" />
      <path
         d="m 75.3435,71.6994 0.7257,1.27"
         id="path1784" />
      <path
         d="m 76.0692,72.9694 v -1.27"
         id="path1786" />
      <path
         d="m 76.674,72.9694 v -1.27"
         id="path1788" />
      <path
         d="m 76.674,71.6994 h 0.4838"
         id="path1790" />
      <path
         d="m 77.1578,71.6994 0.121,0.0605"
         id="path1792" />
      <path
         d="m 77.2788,71.7599 0.0605,0.0605"
         id="path1794" />
      <path
         d="m 77.3393,71.8204 0.0604,0.1209"
         id="path1796" />
      <path
         d="m 77.3997,71.9413 v 0.1815"
         id="path1798" />
      <path
         d="m 77.3997,72.1228 -0.0604,0.1209"
         id="path1800" />
      <path
         d="m 77.3393,72.2437 -0.0605,0.0605"
         id="path1802" />
      <path
         d="m 77.2788,72.3042 -0.121,0.0605"
         id="path1804" />
      <path
         d="M 77.1578,72.3647 H 76.674"
         id="path1806" />
      <path
         d="m 77.944,72.9694 v -1.27"
         id="path1808" />
      <path
         d="m 77.944,71.6994 0.7257,1.27"
         id="path1810" />
      <path
         d="m 78.6697,72.9694 v -1.27"
         id="path1812" />
    </g>
    <path
       style="fill:#840000;fill-opacity:1;fill-rule:evenodd;stroke:#840000;stroke-width:0.1524;stroke-linecap:round;stroke-linejoin:round;stroke-opacity:1"
       d="m 72.39,86.36 v 1.27 h -0.762 l 0.762,1.27 0.762,-1.27 H 72.39"
       id="path1816" />
  </g>
  <g
     style="fill:none;stroke:#840000;stroke-width:0.1524;stroke-linecap:round;stroke-linejoin:round;stroke-opacity:1"
     id="g1822"
     transform="translate(-58.3438,-59.6138)">
    <path
       d="m 72.39,86.36 v 0"
       id="path1820" />
  </g>
  <g
     style="fill:none;stroke:#006464;stroke-width:0.1524;stroke-linecap:round;stroke-linejoin:round;stroke-opacity:1"
     id="g1866"
     transform="translate(-58.3438,-59.6138)">
    <text
       x="72.3899"
       y="92.074898"
       textLength="4.0737"
       font-size="1.6933px"
       lengthAdjust="spacingAndGlyphs"
       text-anchor="middle"
       opacity="0"
       stroke-opacity="0"
       id="text1824">-5V</text>
    <g
       class="stroked-text"
       id="g1864">
      <desc
         id="desc1826">-5V</desc>
      <path
         d="m 70.757,91.5356 h 0.9677"
         id="path1828" />
      <path
         d="M 72.9342,90.7494 H 72.3294"
         id="path1830" />
      <path
         d="M 72.3294,90.7494 72.269,91.3542"
         id="path1832" />
      <path
         d="m 72.269,91.3542 0.0604,-0.0605"
         id="path1834" />
      <path
         d="m 72.3294,91.2937 0.121,-0.0605"
         id="path1836" />
      <path
         d="m 72.4504,91.2332 h 0.3024"
         id="path1838" />
      <path
         d="m 72.7528,91.2332 0.1209,0.0605"
         id="path1840" />
      <path
         d="m 72.8737,91.2937 0.0605,0.0605"
         id="path1842" />
      <path
         d="m 72.9342,91.3542 0.0605,0.1209"
         id="path1844" />
      <path
         d="m 72.9947,91.4751 v 0.3024"
         id="path1846" />
      <path
         d="m 72.9947,91.7775 -0.0605,0.121"
         id="path1848" />
      <path
         d="M 72.9342,91.8985 72.8737,91.959"
         id="path1850" />
      <path
         d="m 72.8737,91.959 -0.1209,0.0604"
         id="path1852" />
      <path
         d="M 72.7528,92.0194 H 72.4504"
         id="path1854" />
      <path
         d="M 72.4504,92.0194 72.3294,91.959"
         id="path1856" />
      <path
         d="M 72.3294,91.959 72.269,91.8985"
         id="path1858" />
      <path
         d="m 73.3575,90.7494 0.4233,1.27"
         id="path1860" />
      <path
         d="m 73.7808,92.0194 0.4234,-1.27"
         id="path1862" />
    </g>
  </g>
  <g
     style="fill:none;stroke:#840000;stroke-width:0.254;stroke-linecap:round;stroke-linejoin:round;stroke-opacity:1"
     id="g1870"
     transform="translate(-58.3438,-59.6138)">
    <rect
       x="71.374001"
       y="78.739998"
       width="2.0320001"
       height="5.0799999"
       rx="0.000000"
       id="rect1868" />
  </g>
  <g
     style="fill:none;stroke:#840000;stroke-width:0.1524;stroke-linecap:round;stroke-linejoin:round;stroke-opacity:1"
     id="g1876"
     transform="translate(-58.3438,-59.6138)">
    <path
       d="M 72.39,78.74 V 77.47"
       id="path1872" />
    <path
       d="m 72.39,83.82 v 1.27"
       id="path1874" />
  </g>
  <g
     style="fill:none;stroke:#006464;stroke-width:0.1524;stroke-linecap:round;stroke-linejoin:round;stroke-opacity:1"
     id="g1970"
     transform="translate(-58.3438,-59.6138)">
    <text
       x="77.097397"
       y="80.644897"
       textLength="4.3155999"
       font-size="1.6933px"
       lengthAdjust="spacingAndGlyphs"
       text-anchor="middle"
       opacity="0"
       stroke-opacity="0"
       id="text1878">Rset</text>
    <g
       class="stroked-text"
       id="g1968">
      <desc
         id="desc1880">Rset</desc>
      <path
         d="M 76.0692,80.5894 75.6459,79.9847"
         id="path1882" />
      <path
         d="m 75.3435,80.5894 v -1.27"
         id="path1884" />
      <path
         d="m 75.3435,79.3194 h 0.4838"
         id="path1886" />
      <path
         d="m 75.8273,79.3194 0.121,0.0605"
         id="path1888" />
      <path
         d="m 75.9483,79.3799 0.0605,0.0605"
         id="path1890" />
      <path
         d="m 76.0088,79.4404 0.0604,0.1209"
         id="path1892" />
      <path
         d="m 76.0692,79.5613 v 0.1815"
         id="path1894" />
      <path
         d="m 76.0692,79.7428 -0.0604,0.1209"
         id="path1896" />
      <path
         d="m 76.0088,79.8637 -0.0605,0.0605"
         id="path1898" />
      <path
         d="m 75.9483,79.9242 -0.121,0.0605"
         id="path1900" />
      <path
         d="M 75.8273,79.9847 H 75.3435"
         id="path1902" />
      <path
         d="m 76.5531,80.529 0.1209,0.0604"
         id="path1904" />
      <path
         d="m 76.674,80.5894 h 0.2419"
         id="path1906" />
      <path
         d="m 76.9159,80.5894 0.121,-0.0604"
         id="path1908" />
      <path
         d="m 77.0369,80.529 0.0604,-0.121"
         id="path1910" />
      <path
         d="M 77.0973,80.408 V 80.3475"
         id="path1912" />
      <path
         d="M 77.0973,80.3475 77.0369,80.2266"
         id="path1914" />
      <path
         d="m 77.0369,80.2266 -0.121,-0.0605"
         id="path1916" />
      <path
         d="M 76.9159,80.1661 H 76.7345"
         id="path1918" />
      <path
         d="m 76.7345,80.1661 -0.121,-0.0605"
         id="path1920" />
      <path
         d="M 76.6135,80.1056 76.5531,79.9847"
         id="path1922" />
      <path
         d="M 76.5531,79.9847 V 79.9242"
         id="path1924" />
      <path
         d="m 76.5531,79.9242 0.0604,-0.121"
         id="path1926" />
      <path
         d="m 76.6135,79.8032 0.121,-0.0604"
         id="path1928" />
      <path
         d="m 76.7345,79.7428 h 0.1814"
         id="path1930" />
      <path
         d="m 76.9159,79.7428 0.121,0.0604"
         id="path1932" />
      <path
         d="m 78.1254,80.529 -0.1209,0.0604"
         id="path1934" />
      <path
         d="M 78.0045,80.5894 H 77.7626"
         id="path1936" />
      <path
         d="M 77.7626,80.5894 77.6416,80.529"
         id="path1938" />
      <path
         d="M 77.6416,80.529 77.5812,80.408"
         id="path1940" />
      <path
         d="M 77.5812,80.408 V 79.9242"
         id="path1942" />
      <path
         d="m 77.5812,79.9242 0.0604,-0.121"
         id="path1944" />
      <path
         d="m 77.6416,79.8032 0.121,-0.0604"
         id="path1946" />
      <path
         d="m 77.7626,79.7428 h 0.2419"
         id="path1948" />
      <path
         d="m 78.0045,79.7428 0.1209,0.0604"
         id="path1950" />
      <path
         d="m 78.1254,79.8032 0.0605,0.121"
         id="path1952" />
      <path
         d="m 78.1859,79.9242 v 0.1209"
         id="path1954" />
      <path
         d="m 78.1859,80.0451 -0.6047,0.121"
         id="path1956" />
      <path
         d="m 78.5488,79.7428 h 0.4838"
         id="path1958" />
      <path
         d="M 78.7302,79.3194 V 80.408"
         id="path1960" />
      <path
         d="m 78.7302,80.408 0.0605,0.121"
         id="path1962" />
      <path
         d="m 78.7907,80.529 0.121,0.0604"
         id="path1964" />
      <path
         d="m 78.9117,80.5894 h 0.1209"
         id="path1966" />
    </g>
  </g>
  <g
     style="fill:none;stroke:#0f0f0f;stroke-width:0.1524;stroke-linecap:round;stroke-linejoin:round;stroke-opacity:1"
     id="g2044"
     transform="translate(-58.3438,-59.6138)">
    <g
       transform="rotate(-90,72.0407,64.77)"
       id="g1974">
      <text
         x="72.040703"
         y="64.769997"
         textLength="4.9807"
         font-size="1.6933px"
         lengthAdjust="spacingAndGlyphs"
         text-anchor="start"
         opacity="0"
         stroke-opacity="0"
         id="text1972">Input</text>
    </g>
    <g
       class="stroked-text"
       id="g2042">
      <desc
         id="desc1976">Input</desc>
      <path
         d="m 71.8772,64.3674 h -1.27"
         id="path1978" />
      <path
         d="m 71.0306,63.7626 h 0.8466"
         id="path1980" />
      <path
         d="M 71.1515,63.7626 71.091,63.7021"
         id="path1982" />
      <path
         d="m 71.091,63.7021 -0.0604,-0.121"
         id="path1984" />
      <path
         d="M 71.0306,63.5811 V 63.3997"
         id="path1986" />
      <path
         d="M 71.0306,63.3997 71.091,63.2788"
         id="path1988" />
      <path
         d="m 71.091,63.2788 0.121,-0.0605"
         id="path1990" />
      <path
         d="m 71.212,63.2183 h 0.6652"
         id="path1992" />
      <path
         d="m 71.0306,62.6136 h 1.27"
         id="path1994" />
      <path
         d="m 71.091,62.6136 -0.0604,-0.121"
         id="path1996" />
      <path
         d="M 71.0306,62.4926 V 62.2507"
         id="path1998" />
      <path
         d="M 71.0306,62.2507 71.091,62.1298"
         id="path2000" />
      <path
         d="m 71.091,62.1298 0.0605,-0.0605"
         id="path2002" />
      <path
         d="m 71.1515,62.0693 0.121,-0.0605"
         id="path2004" />
      <path
         d="m 71.2725,62.0088 h 0.3628"
         id="path2006" />
      <path
         d="m 71.6353,62.0088 0.121,0.0605"
         id="path2008" />
      <path
         d="m 71.7563,62.0693 0.0605,0.0605"
         id="path2010" />
      <path
         d="m 71.8168,62.1298 0.0604,0.1209"
         id="path2012" />
      <path
         d="m 71.8772,62.2507 v 0.2419"
         id="path2014" />
      <path
         d="m 71.8772,62.4926 -0.0604,0.121"
         id="path2016" />
      <path
         d="m 71.0306,60.9203 h 0.8466"
         id="path2018" />
      <path
         d="m 71.0306,61.4646 h 0.6652"
         id="path2020" />
      <path
         d="m 71.6958,61.4646 0.121,-0.0605"
         id="path2022" />
      <path
         d="m 71.8168,61.4041 0.0604,-0.121"
         id="path2024" />
      <path
         d="M 71.8772,61.2831 V 61.1017"
         id="path2026" />
      <path
         d="M 71.8772,61.1017 71.8168,60.9808"
         id="path2028" />
      <path
         d="M 71.8168,60.9808 71.7563,60.9203"
         id="path2030" />
      <path
         d="M 71.0306,60.497 V 60.0132"
         id="path2032" />
      <path
         d="m 70.6072,60.3156 h 1.0886"
         id="path2034" />
      <path
         d="m 71.6958,60.3156 0.121,-0.0605"
         id="path2036" />
      <path
         d="m 71.8168,60.2551 0.0604,-0.121"
         id="path2038" />
      <path
         d="M 71.8772,60.1341 V 60.0132"
         id="path2040" />
    </g>
  </g>
  <g
     style="fill:none;stroke:#0f0f0f;stroke-width:0.1524;stroke-linecap:round;stroke-linejoin:round;stroke-opacity:1"
     id="g2156"
     transform="translate(-58.3438,-59.6138)">
    <text
       x="58.419998"
       y="70.770699"
       textLength="6.553"
       font-size="1.6933px"
       lengthAdjust="spacingAndGlyphs"
       text-anchor="start"
       opacity="0"
       stroke-opacity="0"
       id="text2046">Enable</text>
    <g
       class="stroked-text"
       id="g2154">
      <desc
         id="desc2048">Enable</desc>
      <path
         d="m 58.8225,69.942 h 0.4234"
         id="path2050" />
      <path
         d="M 59.4273,70.6072 H 58.8225"
         id="path2052" />
      <path
         d="m 58.8225,70.6072 v -1.27"
         id="path2054" />
      <path
         d="m 58.8225,69.3372 h 0.6048"
         id="path2056" />
      <path
         d="m 59.9715,69.7606 v 0.8466"
         id="path2058" />
      <path
         d="M 59.9715,69.8815 60.032,69.821"
         id="path2060" />
      <path
         d="m 60.032,69.821 0.121,-0.0604"
         id="path2062" />
      <path
         d="m 60.153,69.7606 h 0.1814"
         id="path2064" />
      <path
         d="m 60.3344,69.7606 0.1209,0.0604"
         id="path2066" />
      <path
         d="m 60.4553,69.821 0.0605,0.121"
         id="path2068" />
      <path
         d="m 60.5158,69.942 v 0.6652"
         id="path2070" />
      <path
         d="M 61.6648,70.6072 V 69.942"
         id="path2072" />
      <path
         d="M 61.6648,69.942 61.6043,69.821"
         id="path2074" />
      <path
         d="M 61.6043,69.821 61.4834,69.7606"
         id="path2076" />
      <path
         d="M 61.4834,69.7606 H 61.2415"
         id="path2078" />
      <path
         d="m 61.2415,69.7606 -0.121,0.0604"
         id="path2080" />
      <path
         d="m 61.6648,70.5468 -0.1209,0.0604"
         id="path2082" />
      <path
         d="M 61.5439,70.6072 H 61.2415"
         id="path2084" />
      <path
         d="m 61.2415,70.6072 -0.121,-0.0604"
         id="path2086" />
      <path
         d="m 61.1205,70.5468 -0.0604,-0.121"
         id="path2088" />
      <path
         d="m 61.0601,70.4258 v -0.121"
         id="path2090" />
      <path
         d="m 61.0601,70.3048 0.0604,-0.1209"
         id="path2092" />
      <path
         d="m 61.1205,70.1839 0.121,-0.0605"
         id="path2094" />
      <path
         d="m 61.2415,70.1234 h 0.3024"
         id="path2096" />
      <path
         d="m 61.5439,70.1234 0.1209,-0.0605"
         id="path2098" />
      <path
         d="m 62.2695,70.6072 v -1.27"
         id="path2100" />
      <path
         d="m 62.2695,69.821 0.121,-0.0604"
         id="path2102" />
      <path
         d="m 62.3905,69.7606 h 0.2419"
         id="path2104" />
      <path
         d="m 62.6324,69.7606 0.1209,0.0604"
         id="path2106" />
      <path
         d="m 62.7533,69.821 0.0605,0.0605"
         id="path2108" />
      <path
         d="m 62.8138,69.8815 0.0605,0.121"
         id="path2110" />
      <path
         d="m 62.8743,70.0025 v 0.3628"
         id="path2112" />
      <path
         d="m 62.8743,70.3653 -0.0605,0.121"
         id="path2114" />
      <path
         d="m 62.8138,70.4863 -0.0605,0.0605"
         id="path2116" />
      <path
         d="m 62.7533,70.5468 -0.1209,0.0604"
         id="path2118" />
      <path
         d="M 62.6324,70.6072 H 62.3905"
         id="path2120" />
      <path
         d="m 62.3905,70.6072 -0.121,-0.0604"
         id="path2122" />
      <path
         d="M 63.6,70.6072 63.479,70.5468"
         id="path2124" />
      <path
         d="m 63.479,70.5468 -0.0605,-0.121"
         id="path2126" />
      <path
         d="M 63.4185,70.4258 V 69.3372"
         id="path2128" />
      <path
         d="m 64.5675,70.5468 -0.1209,0.0604"
         id="path2130" />
      <path
         d="M 64.4466,70.6072 H 64.2047"
         id="path2132" />
      <path
         d="m 64.2047,70.6072 -0.121,-0.0604"
         id="path2134" />
      <path
         d="m 64.0837,70.5468 -0.0604,-0.121"
         id="path2136" />
      <path
         d="M 64.0233,70.4258 V 69.942"
         id="path2138" />
      <path
         d="m 64.0233,69.942 0.0604,-0.121"
         id="path2140" />
      <path
         d="m 64.0837,69.821 0.121,-0.0604"
         id="path2142" />
      <path
         d="m 64.2047,69.7606 h 0.2419"
         id="path2144" />
      <path
         d="m 64.4466,69.7606 0.1209,0.0604"
         id="path2146" />
      <path
         d="m 64.5675,69.821 0.0605,0.121"
         id="path2148" />
      <path
         d="m 64.628,69.942 v 0.1209"
         id="path2150" />
      <path
         d="m 64.628,70.0629 -0.6047,0.121"
         id="path2152" />
    </g>
  </g>
  <g
     style="fill:none;stroke:#009600;stroke-width:0.1524;stroke-linecap:round;stroke-linejoin:round;stroke-opacity:1"
     id="g2166"
     transform="translate(-58.3438,-59.6138)">
    <path
       d="m 58.42,71.12 h 6.35"
       id="path2158" />
    <path
       d="m 72.39,59.69 v 6.35"
       id="path2160" />
    <path
       d="m 72.39,85.09 v 1.27"
       id="path2162" />
    <path
       d="m 72.39,76.2 v 1.27"
       id="path2164" />
  </g>
  <metadata
     id="metadata2174">
    <rdf:RDF>
      <cc:Work
         rdf:about="">
        <dc:title>SVG Image created as Schematic.svg date 2024/11/17 11:26:14 </dc:title>
      </cc:Work>
    </rdf:RDF>
  </metadata>
</svg>
